# xmcd CD database file
#
# Track frame offsets:
#	150
#	13172
#	29862
#	47386
#	67230
#
# Disc length: 1091 seconds
#
# Revision: 0
# Processed by: cddbd v1.5.2PL0 Copyright (c) Steve Scherf et al.
# Submitted via: CDex 1.72
#
DISCID=44044105
DTITLE=CARLY PATTERSON - BACK TO THE BEGINNING
DYEAR=2007
DGENRE=Country
TTITLE0=A STEP AWAY
TTITLE1=BACK TO THE BEGINNING
TTITLE2=FOREVER'S COME AND GONE
TTITLE3=LOST IN ME
TTITLE4=TIME TO WAKE UP
EXTD=YEAR: 2007
EXTT0=
EXTT1=
EXTT2=
EXTT3=
EXTT4=
PLAYORDER=
